<?xml version="1.0" encoding="utf-8"?>
<!-- Generator: Adobe Illustrator 27.5.0, SVG Export Plug-In . SVG Version: 6.00 Build 0)  -->
<svg version="1.1" xmlns="http://www.w3.org/2000/svg" xmlns:xlink="http://www.w3.org/1999/xlink" x="0px" y="0px"
	 viewBox="0 0 2000 2000" style="enable-background:new 0 0 2000 2000;" xml:space="preserve">
<g id="Background">
	<rect x="0.214" y="0.056" style="fill:#87DEF9;" width="2000" height="2000"/>
</g>
<g id="Paw">
	<g>
		<path style="fill:#292B27;" d="M913.191,1167.148c-8.933-13.873-22.691-23.248-37.746-25.72c-0.67-0.11-1.344-0.202-2.021-0.281
			c-1.834-4.926-4.031-9.081-6.191-12.436c-8.933-13.872-22.691-23.247-37.746-25.719c-2.424-0.398-4.9-0.6-7.358-0.6
			c-9.794,0-18.989,3.016-26.945,8.411c-0.187,0.127-0.428,0.127-0.615,0c-7.956-5.395-17.151-8.411-26.946-8.411
			c-2.458,0-4.934,0.202-7.358,0.6c-15.055,2.472-28.813,11.847-37.746,25.719c-2.161,3.355-4.357,7.51-6.191,12.435
			c-0.677,0.08-1.351,0.171-2.021,0.281c-15.055,2.472-28.813,11.847-37.746,25.719c-6.495,10.086-13.396,27.233-9.387,51.645
			c1.726,10.509,5.687,19.738,11.337,27.195c6.849,9.038,10.672,19.999,10.656,31.338v0c0,3.798-3.115,301.344-2.95,301.45
			c0,0,14.19,22.148,108.657,22.146c94.467-0.002,109.815-22.146,109.815-22.146l-5.208-289.886
			c-0.001-0.037,0.002-0.073,0.009-0.109c0.713-3.758,1.092-7.586,1.092-11.454v0c-0.016-11.34,3.808-22.301,10.656-31.338
			c5.65-7.456,9.611-16.686,11.337-27.195C926.586,1194.381,919.686,1177.234,913.191,1167.148z"/>
		<g>
			<path style="fill:#292B27;" d="M794.877,1609.779c-88.616,0.002-110.666-19.199-115.388-25.208
				c-2.152-2.466-2.14-5.453-2.131-7.386c0.004-1.023,0.014-2.533,0.028-4.486c0.029-3.884,0.077-9.527,0.141-16.577
				c0.128-14.089,0.318-33.798,0.541-56.296c0.445-44.99,1.018-101.134,1.473-145.785c0.43-42.137,0.769-75.42,0.77-76.718
				c0.013-9.34-3.05-18.323-8.859-25.988c-6.606-8.717-11.107-19.474-13.018-31.108c-4.466-27.192,3.343-46.482,10.68-57.876
				c9.724-15.103,24.508-25.591,40.9-29.123c1.477-3.264,3.17-6.382,5.058-9.314c10.286-15.974,26.235-26.787,43.758-29.665
				c2.895-0.476,5.854-0.717,8.793-0.717c9.502,0,18.823,2.433,27.253,7.078c8.426-4.644,17.749-7.078,27.253-7.078
				c2.939,0,5.898,0.241,8.795,0.718c17.521,2.877,33.47,13.689,43.757,29.664c1.888,2.932,3.581,6.05,5.058,9.314
				c16.391,3.533,31.176,14.021,40.9,29.123c7.337,11.393,15.145,30.682,10.679,57.875c-1.91,11.635-6.412,22.391-13.018,31.109
				c-5.808,7.665-8.871,16.647-8.858,25.976c0,4.058-0.365,8.17-1.086,12.246l5.193,289.058c0.033,1.858-0.518,3.678-1.576,5.206
				C908.968,1588.156,889.204,1609.777,794.877,1609.779L794.877,1609.779z"/>
			<path style="fill:#473038;" d="M822.13,1102.391c2.458,0,4.934,0.202,7.358,0.6c15.055,2.472,28.812,11.847,37.746,25.719
				c2.161,3.355,4.357,7.51,6.191,12.436c0.676,0.08,1.351,0.171,2.021,0.281c15.055,2.472,28.813,11.847,37.746,25.72
				c6.495,10.086,13.395,27.233,9.386,51.644c-1.726,10.509-5.687,19.738-11.337,27.195c-6.849,9.038-10.672,19.999-10.656,31.339
				c0,3.868-0.379,7.697-1.091,11.454c-0.007,0.036-0.01,0.073-0.009,0.109l5.208,289.886c0,0-15.348,22.143-109.815,22.145
				c-0.006,0-0.009,0-0.015,0c-94.451,0-108.642-22.145-108.642-22.145c-0.165-0.107,2.95-297.652,2.95-301.45
				c0.016-11.34-3.808-22.301-10.656-31.339c-5.65-7.456-9.611-16.686-11.338-27.195c-4.009-24.412,2.892-41.558,9.387-51.645
				c8.933-13.873,22.691-23.247,37.746-25.719c0.67-0.11,1.344-0.202,2.021-0.281c1.834-4.925,4.03-9.08,6.191-12.435
				c8.933-13.873,22.691-23.247,37.745-25.719c2.424-0.398,4.9-0.6,7.358-0.6c9.795,0,18.989,3.016,26.946,8.411
				c0.093,0.063,0.201,0.095,0.307,0.095c0.107,0,0.214-0.031,0.307-0.095C803.141,1105.408,812.335,1102.391,822.13,1102.391
				 M822.13,1084.675c-9.42,0-18.677,2.059-27.253,6.016c-8.577-3.958-17.832-6.016-27.253-6.016c-3.418,0-6.86,0.281-10.229,0.834
				c-19.989,3.283-38.13,15.533-49.77,33.61c-1.35,2.096-2.61,4.274-3.774,6.524c-16.947,4.821-32.035,16.152-42.183,31.912
				c-8.179,12.702-16.896,34.134-11.973,64.107c2.144,13.051,7.227,25.162,14.699,35.023c4.629,6.109,7.07,13.237,7.06,20.614
				c-0.005,1.616-0.342,34.71-0.769,76.609c-0.458,44.911-1.028,100.805-1.473,145.808c-0.241,24.422-0.423,43.369-0.541,56.317
				c-0.064,7.058-0.112,12.708-0.141,16.597c-0.015,1.966-0.024,3.487-0.029,4.517c-0.002,0.559-0.003,0.986-0.002,1.273
				c0.01,4.218,1.248,7.476,2.812,9.91l-0.006,0.004c2.537,3.96,9.524,11.587,27.809,18.18c22.309,8.044,54.524,12.123,95.75,12.123
				c41.211-0.001,73.592-4.068,96.257-12.089c18.305-6.477,25.483-13.858,28.133-17.681c2.117-3.054,3.22-6.696,3.153-10.411
				l-5.178-288.226c0.713-4.302,1.073-8.633,1.073-12.906c-0.01-7.402,2.431-14.53,7.06-20.639
				c7.473-9.862,12.556-21.973,14.699-35.024c4.923-29.973-3.794-51.405-11.973-64.107c-10.148-15.76-25.236-27.091-42.183-31.912
				c-1.165-2.25-2.425-4.429-3.775-6.525c-11.641-18.077-29.781-30.327-49.77-33.609
				C828.989,1084.956,825.548,1084.675,822.13,1084.675L822.13,1084.675z"/>
		</g>
		<g>
			<path style="fill:#FF92A7;" d="M719.885,1175.385c-9.386,1.542-22.736,13.564-18.751,37.829
				c2.463,14.997,13.163,22.55,27.67,16.479c8.75-3.661,14.998-14.948,12.535-29.945
				C738.876,1184.752,729.271,1173.844,719.885,1175.385z"/>
			<path style="fill:#FF92A7;" d="M765.843,1136.949c-9.386,1.542-22.736,13.564-18.751,37.829
				c2.463,14.997,13.163,22.55,27.67,16.479c8.75-3.661,14.998-14.948,12.535-29.945
				C784.834,1146.315,775.229,1135.407,765.843,1136.949z"/>
			<path style="fill:#FF92A7;" d="M869.869,1175.385c-9.386-1.542-18.991,9.366-21.454,24.363
				c-2.463,14.997,3.785,26.284,12.535,29.945c14.507,6.071,25.207-1.483,27.67-16.479
				C892.605,1188.949,879.255,1176.927,869.869,1175.385z"/>
			<path style="fill:#FF92A7;" d="M823.911,1136.949c-9.386-1.542-18.991,9.366-21.454,24.363
				c-2.463,14.997,3.785,26.284,12.535,29.945c14.507,6.07,25.207-1.483,27.67-16.479
				C846.648,1150.512,833.297,1138.49,823.911,1136.949z"/>
			<path style="fill:#FF92A7;" d="M839.814,1244.319c-3.271-1.547-5.224-4.491-5.135-7.663c0.007-0.229,0.01-0.46,0.01-0.69
				c0-17.181-17.824-31.109-39.811-31.109c-21.987,0-39.811,13.928-39.811,31.109c0,0.231,0.003,0.461,0.01,0.69
				c0.089,3.171-1.864,6.116-5.135,7.663c-11.525,5.45-19.228,15.339-19.228,26.633c0,17.181,17.824,31.109,39.811,31.109
				c3.932,0,7.73-0.446,11.317-1.276c8.546-1.977,17.527-1.977,26.074,0c3.587,0.83,7.385,1.276,11.317,1.276
				c21.987,0,39.811-13.928,39.811-31.109C859.042,1259.657,851.339,1249.769,839.814,1244.319z"/>
		</g>
		<g>
			<ellipse style="fill:#F9C0D1;" cx="787.838" cy="1238.003" rx="21.769" ry="19.885"/>
			<path style="fill:#F9C0D1;" d="M725.163,1198.097c-2.041,6.301-7.251,10.258-11.638,8.837s-6.289-7.681-4.249-13.982
				c2.041-6.301,7.251-10.257,11.638-8.837C725.301,1185.536,727.203,1191.796,725.163,1198.097z"/>
			<path style="fill:#F9C0D1;" d="M771.838,1157.567c-2.041,6.301-7.251,10.257-11.638,8.837c-4.387-1.421-6.289-7.681-4.249-13.982
				c2.041-6.301,7.251-10.258,11.638-8.837C771.976,1145.006,773.878,1151.266,771.838,1157.567z"/>
			<path style="fill:#F9C0D1;" d="M826.69,1157.567c-2.041,6.301-7.251,10.257-11.638,8.837c-4.387-1.421-6.289-7.681-4.249-13.982
				c2.041-6.301,7.251-10.258,11.638-8.837C826.828,1145.006,828.731,1151.266,826.69,1157.567z"/>
			<path style="fill:#F9C0D1;" d="M874.115,1195.933c-2.041,6.301-7.251,10.257-11.638,8.837c-4.387-1.421-6.289-7.681-4.249-13.982
				c2.041-6.301,7.251-10.258,11.638-8.837C874.254,1183.372,876.156,1189.631,874.115,1195.933z"/>
		</g>
		<path style="fill:#DDD0C7;" d="M687.088,1483.619c-0.527,52.858-0.93,95.116-0.868,95.156c0,0,14.19,22.148,108.657,22.145
			c94.467-0.002,109.815-22.145,109.815-22.145l-1.716-95.493c-25.032,5.122-60.1,8.988-108.988,8.989
			C746.162,1492.273,711.746,1488.575,687.088,1483.619z"/>
		<path style="fill:#5E544F;" d="M901.787,1417.088l-1.189-66.199c-24.861,4.882-59.258,8.508-106.61,8.51
			c-46.968,0.001-80.996-3.566-105.557-8.388c-0.207,20.291-0.44,43.129-0.675,66.305c24.611,4.889,58.837,8.52,106.232,8.519
			C842.104,1425.834,876.837,1422.09,901.787,1417.088z"/>
		<path style="fill:#837268;" d="M793.988,1425.835c-47.395,0.001-81.622-3.63-106.232-8.519
			c-0.228,22.453-0.457,45.218-0.668,66.303c24.658,4.956,59.074,8.654,106.9,8.653c48.888-0.001,83.956-3.867,108.988-8.989
			l-1.189-66.194C876.837,1422.09,842.104,1425.834,793.988,1425.835z"/>
	</g>
	<g>
		<g>
			<path style="fill:#B09287;" d="M1205.499,1609.779c-88.616,0.002-110.666-19.2-115.388-25.209
				c-2.151-2.467-2.139-5.452-2.131-7.385c0.004-1.023,0.014-2.533,0.029-4.486c0.029-3.884,0.078-9.527,0.141-16.577
				c0.128-14.089,0.319-33.798,0.541-56.296c0.445-44.99,1.018-101.135,1.473-145.784c0.43-42.137,0.769-75.42,0.771-76.718
				c0.013-9.34-3.05-18.322-8.858-25.988c-6.605-8.716-11.107-19.474-13.018-31.108c-4.466-27.192,3.342-46.482,10.679-57.877
				c9.724-15.101,24.51-25.59,40.9-29.122c1.477-3.264,3.17-6.383,5.058-9.314c10.287-15.975,26.236-26.787,43.758-29.665
				c2.897-0.475,5.856-0.717,8.793-0.717c9.503,0,18.823,2.433,27.253,7.079c8.431-4.646,17.751-7.079,27.253-7.079
				c2.938,0,5.896,0.241,8.793,0.717c17.522,2.877,33.471,13.69,43.759,29.664c1.888,2.933,3.581,6.051,5.058,9.315
				c16.39,3.533,31.176,14.022,40.9,29.123c7.337,11.393,15.146,30.683,10.679,57.875c-1.91,11.634-6.412,22.391-13.018,31.109
				c-5.808,7.665-8.871,16.648-8.858,25.976c0,4.058-0.365,8.17-1.087,12.246l5.245,291.914l-1.628,2.349
				C1319.591,1588.155,1299.827,1609.776,1205.499,1609.779L1205.499,1609.779z"/>
			<path style="fill:#473038;" d="M1232.752,1102.391c2.458,0,4.934,0.202,7.358,0.6c15.055,2.472,28.812,11.847,37.746,25.719
				c2.161,3.355,4.357,7.51,6.191,12.436c0.676,0.08,1.351,0.171,2.021,0.281c15.055,2.472,28.813,11.847,37.746,25.72
				c6.495,10.086,13.395,27.233,9.386,51.644c-1.726,10.509-5.687,19.738-11.337,27.195c-6.848,9.038-10.672,19.999-10.656,31.339
				c0,3.868-0.379,7.697-1.091,11.454c-0.007,0.036-0.01,0.073-0.009,0.109l5.208,289.886c0,0-15.348,22.143-109.815,22.145
				c-0.006,0-0.01,0-0.016,0c-94.451,0-108.641-22.145-108.641-22.145c-0.165-0.107,2.95-297.652,2.95-301.45
				c0.016-11.34-3.808-22.301-10.656-31.339c-5.65-7.456-9.611-16.686-11.337-27.195c-4.009-24.412,2.892-41.558,9.387-51.645
				c8.933-13.873,22.691-23.247,37.746-25.719c0.67-0.11,1.344-0.202,2.021-0.281c1.833-4.925,4.03-9.08,6.191-12.435
				c8.933-13.873,22.691-23.247,37.746-25.72c2.424-0.398,4.9-0.6,7.358-0.6c9.795,0,18.989,3.016,26.946,8.411
				c0.093,0.063,0.2,0.095,0.307,0.095c0.107,0,0.214-0.031,0.308-0.095C1213.763,1105.408,1222.958,1102.391,1232.752,1102.391
				 M1232.752,1084.675c-9.42,0-18.677,2.059-27.253,6.016c-8.577-3.958-17.833-6.016-27.253-6.016c-3.418,0-6.86,0.281-10.23,0.834
				c-19.989,3.283-38.13,15.533-49.77,33.611c-1.35,2.096-2.61,4.274-3.774,6.524c-16.947,4.821-32.035,16.152-42.183,31.912
				c-8.179,12.702-16.896,34.135-11.973,64.107c2.144,13.051,7.227,25.162,14.699,35.023c4.629,6.109,7.07,13.237,7.06,20.614
				c-0.005,1.616-0.342,34.71-0.77,76.609c-0.458,44.911-1.028,100.805-1.473,145.808c-0.241,24.422-0.423,43.369-0.541,56.317
				c-0.064,7.058-0.112,12.708-0.141,16.597c-0.015,1.966-0.024,3.487-0.029,4.517c-0.002,0.559-0.003,0.986-0.002,1.273
				c0.01,4.218,1.248,7.475,2.812,9.91l-0.006,0.004c2.537,3.96,9.524,11.587,27.809,18.181
				c22.309,8.044,54.524,12.123,95.749,12.123c41.212-0.001,73.592-4.068,96.258-12.088c18.305-6.477,25.483-13.858,28.133-17.681
				l3.255-4.697l-0.103-5.714l-5.178-288.226c0.713-4.302,1.073-8.633,1.073-12.906c-0.01-7.402,2.431-14.53,7.06-20.639
				c7.473-9.862,12.556-21.973,14.699-35.024c4.923-29.973-3.794-51.405-11.973-64.107c-10.148-15.76-25.235-27.091-42.183-31.912
				c-1.165-2.25-2.425-4.429-3.775-6.525c-11.641-18.077-29.781-30.327-49.77-33.609
				C1239.612,1084.956,1236.17,1084.675,1232.752,1084.675L1232.752,1084.675z"/>
		</g>
		<g>
			<path style="fill:#FC83A0;" d="M1130.507,1175.385c-9.386,1.542-22.736,13.564-18.751,37.829
				c2.463,14.997,13.163,22.55,27.67,16.479c8.75-3.661,14.998-14.948,12.535-29.945
				C1149.499,1184.752,1139.893,1173.844,1130.507,1175.385z"/>
			<path style="fill:#FC83A0;" d="M1176.465,1136.949c-9.386,1.542-22.736,13.564-18.751,37.829
				c2.463,14.997,13.163,22.55,27.67,16.479c8.75-3.661,14.998-14.948,12.535-29.945
				C1195.457,1146.315,1185.851,1135.407,1176.465,1136.949z"/>
			<path style="fill:#FC83A0;" d="M1280.491,1175.385c-9.386-1.542-18.991,9.366-21.454,24.363
				c-2.463,14.997,3.785,26.284,12.535,29.945c14.507,6.071,25.207-1.483,27.67-16.479
				C1303.228,1188.949,1289.877,1176.927,1280.491,1175.385z"/>
			<path style="fill:#FC83A0;" d="M1234.534,1136.949c-9.386-1.542-18.991,9.366-21.454,24.363
				c-2.463,14.997,3.785,26.284,12.535,29.945c14.507,6.07,25.207-1.483,27.67-16.479
				C1257.27,1150.512,1243.92,1138.49,1234.534,1136.949z"/>
			<path style="fill:#FC83A0;" d="M1250.436,1244.319c-3.271-1.547-5.224-4.491-5.135-7.663c0.006-0.229,0.01-0.46,0.01-0.69
				c0-17.181-17.824-31.109-39.811-31.109c-21.987,0-39.811,13.928-39.811,31.109c0,0.231,0.003,0.461,0.01,0.69
				c0.089,3.171-1.864,6.116-5.135,7.663c-11.525,5.45-19.228,15.339-19.228,26.633c0,17.181,17.824,31.109,39.811,31.109
				c3.932,0,7.73-0.446,11.317-1.276c8.547-1.977,17.527-1.977,26.074,0c3.587,0.83,7.385,1.276,11.317,1.276
				c21.987,0,39.811-13.928,39.811-31.109C1269.665,1259.657,1261.961,1249.769,1250.436,1244.319z"/>
		</g>
		<g>
			<ellipse style="fill:#F9C0D1;" cx="1198.461" cy="1238.003" rx="21.769" ry="19.885"/>
			
				<ellipse transform="matrix(0.3081 -0.9514 0.9514 0.3081 -357.0133 1900.1609)" style="fill:#F9C0D1;" cx="1127.842" cy="1195.525" rx="11.993" ry="8.35"/>
			<path style="fill:#F9C0D1;" d="M1182.46,1157.567c-2.041,6.301-7.251,10.257-11.638,8.837c-4.387-1.421-6.289-7.681-4.249-13.982
				c2.041-6.301,7.251-10.258,11.638-8.837C1182.599,1145.006,1184.501,1151.266,1182.46,1157.567z"/>
			
				<ellipse transform="matrix(0.3081 -0.9514 0.9514 0.3081 -248.1954 1968.7283)" style="fill:#F9C0D1;" cx="1229.369" cy="1154.994" rx="11.993" ry="8.35"/>
			<path style="fill:#F9C0D1;" d="M1284.738,1195.933c-2.041,6.301-7.251,10.257-11.638,8.837
				c-4.387-1.421-6.289-7.681-4.249-13.982s7.251-10.257,11.638-8.837C1284.876,1183.372,1286.778,1189.631,1284.738,1195.933z"/>
		</g>
		<path style="fill:#FFFFFF;" d="M1099.054,1351.011c-0.91,89.23-2.324,227.692-2.211,227.764c0,0,14.19,22.148,108.657,22.146
			c94.467-0.003,109.815-22.146,109.815-22.146l-4.094-227.885c-24.861,4.882-59.258,8.508-106.61,8.51
			C1157.642,1359.4,1123.615,1355.833,1099.054,1351.011z"/>
	</g>
	<g>
		<g>
			<path style="fill:#25251B;" d="M1616.173,1609.779c-88.61,0.002-110.663-19.198-115.387-25.208
				c-2.153-2.467-2.14-5.453-2.132-7.386c0.004-1.023,0.014-2.533,0.029-4.486c0.029-3.883,0.078-9.527,0.141-16.577
				c0.128-14.089,0.319-33.798,0.541-56.296c0.445-44.99,1.018-101.134,1.473-145.785c0.43-42.137,0.769-75.42,0.77-76.718
				c0.013-9.341-3.05-18.323-8.858-25.987c-6.606-8.718-11.108-19.475-13.019-31.109c-4.466-27.192,3.343-46.482,10.68-57.876
				c9.723-15.101,24.509-25.589,40.899-29.122c1.477-3.264,3.17-6.382,5.058-9.314c10.287-15.975,26.236-26.787,43.758-29.665
				c2.895-0.476,5.854-0.717,8.793-0.717c9.502,0,18.824,2.434,27.254,7.079c8.431-4.646,17.751-7.079,27.252-7.079
				c2.939,0,5.898,0.241,8.795,0.718c17.52,2.877,33.469,13.689,43.757,29.663c1.888,2.932,3.581,6.051,5.058,9.315
				c16.389,3.531,31.175,14.02,40.9,29.123c7.337,11.393,15.146,30.682,10.679,57.875c-1.91,11.633-6.412,22.391-13.019,31.109
				c-5.807,7.665-8.87,16.647-8.857,25.976c0,4.058-0.365,8.17-1.087,12.246l5.245,291.914l-1.628,2.349
				C1730.265,1588.155,1710.501,1609.776,1616.173,1609.779L1616.173,1609.779z"/>
			<g>
				<path style="fill:#FFFFFF;" d="M1643.426,1102.391c2.458,0,4.934,0.202,7.358,0.6c15.055,2.472,28.812,11.847,37.746,25.719
					c2.161,3.355,4.357,7.51,6.191,12.436c0.676,0.08,1.351,0.171,2.021,0.281c15.055,2.472,28.813,11.847,37.746,25.72
					c6.495,10.086,13.395,27.233,9.386,51.644c-1.725,10.509-5.687,19.738-11.337,27.195c-6.849,9.038-10.672,19.999-10.656,31.338
					c0,3.869-0.379,7.697-1.091,11.454c-0.007,0.036-0.01,0.073-0.009,0.11l5.208,289.886c0,0-15.348,22.143-109.815,22.146
					c-0.006,0-0.009,0-0.015,0c-94.451,0-108.642-22.146-108.642-22.146c-0.165-0.107,2.95-297.652,2.95-301.45
					c0.016-11.339-3.808-22.3-10.656-31.338c-5.65-7.456-9.611-16.686-11.337-27.195c-4.009-24.412,2.892-41.559,9.386-51.645
					c8.933-13.873,22.691-23.247,37.746-25.719c0.67-0.11,1.344-0.202,2.021-0.281c1.834-4.925,4.03-9.08,6.191-12.435
					c8.933-13.873,22.691-23.247,37.746-25.72c2.424-0.398,4.9-0.6,7.358-0.6c9.795,0,18.989,3.016,26.946,8.411
					c0.094,0.063,0.201,0.095,0.307,0.095c0.107,0,0.214-0.031,0.308-0.095C1624.437,1105.408,1633.631,1102.391,1643.426,1102.391
					 M1643.426,1084.675c-9.421,0-18.677,2.059-27.253,6.016c-8.576-3.958-17.832-6.016-27.253-6.016
					c-3.417,0-6.859,0.281-10.229,0.834c-19.99,3.283-38.13,15.533-49.77,33.61c-1.35,2.096-2.61,4.275-3.774,6.524
					c-16.947,4.821-32.035,16.152-42.183,31.912c-8.179,12.702-16.896,34.134-11.973,64.107
					c2.144,13.051,7.226,25.161,14.699,35.023c4.629,6.109,7.071,13.237,7.06,20.614c-0.005,1.617-0.342,34.724-0.77,76.641
					c-0.458,44.908-1.028,100.798-1.473,145.792c-0.242,24.417-0.424,43.361-0.541,56.306c-0.064,7.057-0.112,12.706-0.141,16.593
					c-0.015,1.966-0.024,3.486-0.029,4.516c-0.002,0.559-0.003,0.985-0.002,1.272c0.01,4.218,1.248,7.476,2.812,9.91l-0.006,0.004
					c2.537,3.96,9.524,11.587,27.809,18.18c22.309,8.044,54.524,12.123,95.75,12.123c41.211-0.001,73.592-4.068,96.257-12.089
					c18.305-6.477,25.483-13.858,28.133-17.681l3.255-4.697l-0.103-5.714l-5.178-288.226c0.713-4.302,1.073-8.633,1.073-12.906
					c-0.01-7.401,2.431-14.53,7.06-20.639c7.473-9.862,12.556-21.973,14.699-35.024c4.923-29.973-3.794-51.405-11.973-64.107
					c-10.148-15.76-25.236-27.091-42.183-31.912c-1.165-2.25-2.425-4.429-3.775-6.525c-11.641-18.077-29.781-30.327-49.77-33.609
					C1650.285,1084.956,1646.844,1084.675,1643.426,1084.675L1643.426,1084.675z"/>
			</g>
		</g>
		<g>
			<path style="fill:#FF92A7;" d="M1541.181,1175.385c-9.386,1.542-22.736,13.564-18.751,37.829
				c2.463,14.997,13.163,22.55,27.67,16.48c8.75-3.661,14.998-14.948,12.535-29.945S1550.567,1173.844,1541.181,1175.385z"/>
			<path style="fill:#FF92A7;" d="M1587.139,1136.949c-9.386,1.541-22.736,13.563-18.751,37.829
				c2.463,14.997,13.163,22.55,27.67,16.48c8.75-3.661,14.998-14.948,12.535-29.946
				C1606.13,1146.315,1596.525,1135.407,1587.139,1136.949z"/>
			<path style="fill:#FF92A7;" d="M1691.165,1175.385c-9.386-1.542-18.991,9.366-21.454,24.363
				c-2.463,14.997,3.785,26.284,12.535,29.945c14.507,6.07,25.207-1.483,27.67-16.48
				C1713.901,1188.949,1700.551,1176.927,1691.165,1175.385z"/>
			<path style="fill:#FF92A7;" d="M1645.208,1136.949c-9.386-1.542-18.991,9.366-21.454,24.363
				c-2.463,14.997,3.785,26.284,12.535,29.946c14.507,6.07,25.207-1.483,27.67-16.48
				C1667.944,1150.512,1654.594,1138.49,1645.208,1136.949z"/>
			<path style="fill:#FF92A7;" d="M1661.11,1244.319c-3.271-1.547-5.224-4.491-5.135-7.663c0.006-0.229,0.01-0.46,0.01-0.69
				c0-17.181-17.824-31.109-39.811-31.109c-21.987,0-39.811,13.928-39.811,31.109c0,0.231,0.003,0.461,0.01,0.69
				c0.089,3.171-1.864,6.116-5.135,7.663c-11.525,5.45-19.228,15.338-19.228,26.633c0,17.181,17.824,31.109,39.811,31.109
				c3.932,0,7.73-0.446,11.317-1.276c8.547-1.978,17.527-1.978,26.074,0c3.587,0.83,7.385,1.276,11.317,1.276
				c21.987,0,39.811-13.928,39.811-31.109C1680.339,1259.657,1672.635,1249.769,1661.11,1244.319z"/>
		</g>
		<g>
			<ellipse style="fill:#F9C0D1;" cx="1609.135" cy="1238.003" rx="21.769" ry="19.885"/>
			<path style="fill:#F9C0D1;" d="M1546.459,1198.097c-2.041,6.301-7.251,10.258-11.638,8.837
				c-4.387-1.421-6.289-7.681-4.249-13.982c2.041-6.301,7.251-10.257,11.638-8.837
				C1546.597,1185.536,1548.5,1191.796,1546.459,1198.097z"/>
			<path style="fill:#F9C0D1;" d="M1593.134,1157.567c-2.041,6.301-7.251,10.257-11.638,8.837s-6.289-7.681-4.249-13.982
				c2.04-6.301,7.251-10.257,11.638-8.837C1593.272,1145.006,1595.175,1151.265,1593.134,1157.567z"/>
			<path style="fill:#F9C0D1;" d="M1647.986,1157.567c-2.041,6.301-7.251,10.257-11.638,8.837
				c-4.387-1.421-6.289-7.681-4.249-13.982c2.041-6.301,7.251-10.257,11.638-8.837
				C1648.125,1145.006,1650.027,1151.265,1647.986,1157.567z"/>
			
				<ellipse transform="matrix(0.3081 -0.9514 0.9514 0.3081 32.2636 2431.0818)" style="fill:#F9C0D1;" cx="1687.468" cy="1193.36" rx="11.993" ry="8.35"/>
		</g>
	</g>
	<g>
		<g>
			<path style="fill:#EDDECC;" d="M384.255,1609.779c-88.616,0.002-110.665-19.199-115.388-25.208
				c-2.152-2.466-2.14-5.452-2.132-7.386c0.004-1.023,0.014-2.533,0.028-4.486c0.029-3.884,0.077-9.527,0.141-16.577
				c0.128-14.089,0.319-33.797,0.541-56.293c0.445-44.989,1.017-101.132,1.473-145.782c0.43-42.14,0.769-75.426,0.77-76.724
				c0.013-9.34-3.05-18.323-8.858-25.988c-6.606-8.717-11.107-19.474-13.018-31.108c-4.466-27.192,3.343-46.482,10.68-57.876
				c9.724-15.101,24.51-25.59,40.899-29.122c1.477-3.264,3.17-6.382,5.058-9.314c10.286-15.974,26.235-26.786,43.758-29.664
				c2.895-0.476,5.854-0.717,8.793-0.717c9.503,0,18.824,2.433,27.252,7.078c8.424-4.644,17.748-7.078,27.253-7.078
				c2.939,0,5.898,0.241,8.795,0.718c17.52,2.877,33.47,13.689,43.757,29.664c1.889,2.932,3.581,6.05,5.058,9.314
				c16.39,3.532,31.176,14.021,40.9,29.123c7.337,11.394,15.145,30.683,10.679,57.876c-1.91,11.633-6.412,22.39-13.018,31.108
				c-5.808,7.665-8.871,16.648-8.858,25.976c0,4.058-0.365,8.17-1.087,12.246l5.245,291.915l-1.628,2.349
				C498.346,1588.156,478.582,1609.777,384.255,1609.779L384.255,1609.779z"/>
			<path style="fill:#593041;" d="M411.507,1102.391c2.458,0,4.934,0.202,7.358,0.6c15.055,2.472,28.812,11.847,37.746,25.719
				c2.161,3.355,4.357,7.51,6.191,12.436c0.676,0.08,1.351,0.171,2.021,0.281c15.055,2.472,28.813,11.847,37.746,25.72
				c6.495,10.086,13.395,27.233,9.386,51.644c-1.726,10.509-5.687,19.738-11.337,27.195c-6.849,9.038-10.672,19.999-10.656,31.339
				c0,3.868-0.379,7.697-1.091,11.454c-0.007,0.036-0.01,0.073-0.009,0.109l5.208,289.886c0,0-15.348,22.143-109.815,22.145
				c-0.006,0-0.009,0-0.015,0c-94.451,0-108.642-22.145-108.642-22.145c-0.165-0.107,2.95-297.652,2.95-301.45
				c0.016-11.34-3.808-22.301-10.656-31.339c-5.65-7.456-9.611-16.686-11.337-27.195c-4.009-24.412,2.892-41.558,9.386-51.645
				c8.933-13.873,22.691-23.247,37.746-25.719c0.67-0.11,1.344-0.202,2.021-0.281c1.834-4.925,4.03-9.08,6.191-12.435
				c8.933-13.873,22.691-23.247,37.746-25.719c2.424-0.398,4.9-0.6,7.358-0.6c9.795,0,18.989,3.016,26.946,8.411
				c0.093,0.063,0.2,0.095,0.307,0.095s0.214-0.031,0.307-0.095C392.518,1105.408,401.713,1102.391,411.507,1102.391
				 M411.507,1084.675c-9.421,0-18.677,2.059-27.253,6.016c-8.576-3.958-17.832-6.016-27.253-6.016
				c-3.418,0-6.86,0.281-10.229,0.834c-19.989,3.283-38.13,15.533-49.77,33.61c-1.35,2.096-2.61,4.275-3.774,6.524
				c-16.947,4.821-32.035,16.152-42.183,31.912c-8.179,12.702-16.896,34.135-11.973,64.107c2.144,13.051,7.226,25.162,14.699,35.023
				c4.629,6.109,7.071,13.237,7.06,20.614c-0.004,1.616-0.342,34.71-0.769,76.609c-0.458,44.911-1.028,100.805-1.473,145.808
				c-0.241,24.422-0.423,43.369-0.541,56.317c-0.064,7.058-0.113,12.708-0.142,16.597c-0.015,1.966-0.024,3.487-0.029,4.517
				c-0.002,0.559-0.003,0.986-0.002,1.273c0.01,4.218,1.248,7.476,2.812,9.91l-0.006,0.004c2.538,3.96,9.525,11.587,27.809,18.18
				c22.309,8.044,54.524,12.123,95.75,12.123c41.211-0.001,73.592-4.068,96.257-12.089c18.305-6.477,25.483-13.858,28.133-17.681
				l3.255-4.697l-0.103-5.714l-5.178-288.226c0.713-4.302,1.073-8.633,1.073-12.906c-0.01-7.402,2.431-14.53,7.06-20.639
				c7.473-9.862,12.556-21.973,14.699-35.024c4.923-29.973-3.794-51.405-11.973-64.107c-10.148-15.76-25.235-27.091-42.183-31.912
				c-1.165-2.25-2.425-4.429-3.775-6.526c-11.641-18.076-29.781-30.326-49.77-33.609
				C418.367,1084.956,414.925,1084.675,411.507,1084.675L411.507,1084.675z"/>
		</g>
		<g>
			<path style="fill:#FF92A7;" d="M309.262,1175.385c-9.386,1.542-22.736,13.564-18.751,37.829
				c2.463,14.997,13.163,22.55,27.67,16.479c8.75-3.661,14.998-14.948,12.535-29.945
				C328.254,1184.752,318.648,1173.844,309.262,1175.385z"/>
			<path style="fill:#FF92A7;" d="M355.22,1136.949c-9.386,1.542-22.736,13.564-18.751,37.829
				c2.463,14.997,13.163,22.55,27.67,16.479c8.75-3.661,14.998-14.948,12.535-29.945
				C374.212,1146.315,364.606,1135.407,355.22,1136.949z"/>
			<path style="fill:#FF92A7;" d="M459.247,1175.385c-9.386-1.542-18.991,9.366-21.454,24.363
				c-2.463,14.997,3.785,26.284,12.535,29.945c14.507,6.071,25.207-1.483,27.67-16.479
				C481.983,1188.949,468.633,1176.927,459.247,1175.385z"/>
			<path style="fill:#FF92A7;" d="M413.289,1136.949c-9.386-1.542-18.991,9.366-21.454,24.363
				c-2.463,14.997,3.785,26.284,12.535,29.945c14.507,6.07,25.207-1.483,27.67-16.479
				C436.025,1150.512,422.675,1138.49,413.289,1136.949z"/>
			<path style="fill:#FF92A7;" d="M429.191,1244.319c-3.271-1.547-5.224-4.491-5.135-7.663c0.007-0.229,0.01-0.46,0.01-0.69
				c0-17.181-17.824-31.109-39.811-31.109c-21.987,0-39.811,13.928-39.811,31.109c0,0.231,0.003,0.461,0.01,0.69
				c0.089,3.171-1.864,6.116-5.135,7.663c-11.525,5.45-19.228,15.339-19.228,26.633c0,17.181,17.824,31.109,39.811,31.109
				c3.932,0,7.73-0.446,11.317-1.276c8.546-1.977,17.527-1.977,26.074,0c3.587,0.83,7.385,1.276,11.317,1.276
				c21.987,0,39.811-13.928,39.811-31.109C448.42,1259.657,440.716,1249.769,429.191,1244.319z"/>
		</g>
		<g>
			<ellipse style="fill:#F9C0D1;" cx="377.216" cy="1238.003" rx="21.769" ry="19.885"/>
			<path style="fill:#F9C0D1;" d="M314.54,1198.097c-2.041,6.301-7.251,10.258-11.638,8.837c-4.387-1.421-6.289-7.681-4.249-13.982
				c2.04-6.301,7.251-10.257,11.638-8.837C314.679,1185.536,316.581,1191.796,314.54,1198.097z"/>
			<path style="fill:#F9C0D1;" d="M361.215,1157.567c-2.04,6.301-7.251,10.257-11.638,8.837c-4.387-1.421-6.289-7.681-4.249-13.982
				c2.041-6.301,7.251-10.258,11.638-8.837C361.354,1145.006,363.256,1151.266,361.215,1157.567z"/>
			<path style="fill:#F9C0D1;" d="M416.068,1157.567c-2.04,6.301-7.251,10.257-11.638,8.837c-4.387-1.421-6.289-7.681-4.249-13.982
				c2.041-6.301,7.251-10.258,11.638-8.837C416.206,1145.006,418.108,1151.266,416.068,1157.567z"/>
			<path style="fill:#F9C0D1;" d="M463.493,1195.933c-2.04,6.301-7.251,10.257-11.638,8.837c-4.387-1.421-6.289-7.681-4.249-13.982
				c2.041-6.301,7.251-10.258,11.638-8.837C463.631,1183.372,465.533,1189.631,463.493,1195.933z"/>
		</g>
		<path style="fill:#593041;" d="M275.771,1333.745c-9.279-4.719,1.79,41.602,1.79,41.602
			c81.466,6.366,113.733-26.724,113.733-26.724C335.746,1339.609,300.238,1346.188,275.771,1333.745z"/>
		<path style="fill:#593041;" d="M432.763,1382.856c0,0,21.715,19.507,59.099,17.954v-39.136
			C491.863,1361.674,469.936,1366.337,432.763,1382.856z"/>
		<path style="fill:#593041;" d="M494.077,1453.738c-90.959,0.159-138.745,17.132-138.745,17.132s6.294,22.298,144.271,37.098
			L494.077,1453.738z"/>
		<path style="fill:#593041;" d="M272.064,1594.506c0,0,7.46-2.645,38.459-0.289c54.875,4.17,73.731-38.083,73.731-38.083
			c-49.827,0-108.625-13.949-108.625-13.949L272.064,1594.506z"/>
		<path style="fill:#593041;" d="M272.642,1423.498c12.717,0,60.89,7.227,60.89,7.227s-33.035,27.022-64.092,28.328
			C260.885,1459.413,272.642,1423.498,272.642,1423.498"/>
	</g>
	<g>
		<g>
			<path style="fill:#FFFFFF;" d="M794.877,906.579c-88.616,0.002-110.666-19.2-115.388-25.209c-2.152-2.466-2.14-5.453-2.131-7.385
				c0.004-1.023,0.014-2.533,0.028-4.486c0.029-3.883,0.077-9.527,0.141-16.577c0.128-14.089,0.319-33.797,0.541-56.295
				c0.445-44.989,1.018-101.133,1.473-145.783c0.43-42.139,0.769-75.422,0.77-76.72c0.013-9.34-3.05-18.323-8.858-25.988
				c-6.605-8.717-11.107-19.475-13.018-31.109c-4.466-27.192,3.343-46.482,10.68-57.876c9.724-15.101,24.509-25.589,40.9-29.122
				c1.477-3.264,3.17-6.382,5.058-9.314c10.286-15.975,26.235-26.787,43.758-29.664c2.897-0.476,5.855-0.717,8.793-0.717
				c9.503,0,18.824,2.433,27.253,7.079c8.428-4.645,17.749-7.079,27.253-7.079c2.939,0,5.897,0.241,8.794,0.717
				c17.521,2.877,33.47,13.689,43.757,29.664c1.888,2.932,3.581,6.051,5.058,9.315c16.389,3.532,31.175,14.02,40.9,29.123
				c7.337,11.394,15.145,30.684,10.679,57.875c-1.91,11.634-6.412,22.391-13.018,31.109c-5.808,7.665-8.871,16.648-8.858,25.976
				c0,4.058-0.365,8.17-1.087,12.246l5.245,291.915l-1.628,2.348C908.968,884.956,889.204,906.576,794.877,906.579L794.877,906.579z
				"/>
			<g>
				<path style="fill:#25251B;" d="M822.13,399.192c2.458,0,4.934,0.202,7.358,0.6c15.055,2.472,28.812,11.847,37.746,25.719
					c2.161,3.355,4.357,7.51,6.191,12.436c0.676,0.08,1.351,0.171,2.021,0.281c15.055,2.472,28.813,11.847,37.746,25.72
					c6.495,10.086,13.395,27.233,9.386,51.644c-1.726,10.508-5.687,19.738-11.337,27.194c-6.849,9.038-10.672,19.999-10.656,31.338
					v0c0,3.868-0.379,7.697-1.091,11.454c-0.007,0.036-0.01,0.073-0.009,0.109l5.208,289.886c0,0-15.348,22.143-109.815,22.146
					c-0.006,0-0.009,0-0.015,0c-94.451,0-108.642-22.146-108.642-22.146c-0.165-0.107,2.95-297.652,2.95-301.45v0
					c0.016-11.34-3.808-22.301-10.656-31.338c-5.65-7.456-9.611-16.686-11.338-27.194c-4.009-24.412,2.892-41.558,9.387-51.645
					c8.933-13.873,22.691-23.247,37.746-25.72c0.67-0.11,1.344-0.202,2.021-0.281c1.834-4.925,4.03-9.08,6.191-12.435
					c8.933-13.873,22.691-23.247,37.746-25.72c2.424-0.398,4.9-0.6,7.358-0.6c9.795,0,18.989,3.016,26.945,8.411
					c0.093,0.063,0.201,0.095,0.308,0.095c0.107,0,0.214-0.032,0.307-0.095C803.141,402.208,812.335,399.192,822.13,399.192
					 M822.13,381.475c-9.421,0-18.677,2.059-27.253,6.017c-8.576-3.958-17.832-6.017-27.253-6.017c-3.418,0-6.86,0.281-10.229,0.834
					c-19.989,3.283-38.13,15.533-49.77,33.61c-1.35,2.096-2.61,4.275-3.774,6.524c-16.947,4.821-32.035,16.152-42.183,31.912
					c-8.179,12.702-16.896,34.134-11.973,64.107c2.144,13.051,7.227,25.162,14.699,35.023c4.629,6.109,7.07,13.237,7.06,20.614
					c-0.005,1.616-0.342,34.711-0.769,76.611c-0.458,44.911-1.028,100.805-1.473,145.807c-0.241,24.421-0.424,43.369-0.541,56.316
					c-0.064,7.058-0.113,12.708-0.141,16.596c-0.015,1.966-0.024,3.487-0.029,4.517c-0.002,0.559-0.003,0.986-0.002,1.273
					c0.01,4.218,1.248,7.475,2.812,9.91l-0.006,0.004c2.537,3.96,9.524,11.587,27.809,18.18
					c22.309,8.044,54.524,12.123,95.75,12.123c41.211-0.001,73.592-4.068,96.257-12.088c18.305-6.477,25.483-13.858,28.133-17.681
					l3.255-4.697l-0.103-5.714l-5.178-288.225c0.712-4.299,1.073-8.633,1.073-12.906c-0.01-7.402,2.431-14.53,7.06-20.639
					c7.473-9.862,12.556-21.973,14.699-35.024c4.923-29.973-3.794-51.405-11.973-64.107c-10.148-15.76-25.236-27.091-42.183-31.912
					c-1.165-2.25-2.425-4.429-3.775-6.525c-11.641-18.077-29.781-30.327-49.77-33.609
					C828.989,381.756,825.548,381.475,822.13,381.475L822.13,381.475z"/>
			</g>
		</g>
		<g>
			<path style="fill:#FF92A7;" d="M719.885,472.186c-9.386,1.542-22.736,13.564-18.751,37.829
				c2.463,14.997,13.163,22.55,27.67,16.48c8.75-3.661,14.998-14.949,12.535-29.945
				C738.876,481.552,729.271,470.644,719.885,472.186z"/>
			<path style="fill:#FF92A7;" d="M765.843,433.749c-9.386,1.542-22.736,13.564-18.751,37.829
				c2.463,14.997,13.163,22.55,27.67,16.48c8.75-3.661,14.998-14.949,12.535-29.945
				C784.834,443.115,775.229,432.207,765.843,433.749z"/>
			<path style="fill:#FF92A7;" d="M869.869,472.186c-9.386-1.542-18.991,9.366-21.454,24.363
				c-2.463,14.997,3.785,26.284,12.535,29.945c14.507,6.07,25.207-1.483,27.67-16.48
				C892.605,485.749,879.255,473.727,869.869,472.186z"/>
			<path style="fill:#FF92A7;" d="M823.911,433.749c-9.386-1.542-18.991,9.366-21.454,24.363
				c-2.463,14.997,3.785,26.284,12.535,29.945c14.507,6.07,25.207-1.483,27.67-16.48
				C846.647,447.313,833.297,435.29,823.911,433.749z"/>
			<path style="fill:#FF92A7;" d="M839.814,541.119c-3.271-1.547-5.224-4.491-5.135-7.663c0.007-0.229,0.01-0.46,0.01-0.69
				c0-17.181-17.824-31.109-39.811-31.109c-21.987,0-39.812,13.928-39.812,31.109c0,0.231,0.003,0.461,0.01,0.69
				c0.089,3.171-1.864,6.116-5.135,7.663c-11.525,5.45-19.228,15.338-19.228,26.633c0,17.181,17.824,31.109,39.811,31.109
				c3.932,0,7.73-0.446,11.317-1.276c8.546-1.978,17.527-1.978,26.074,0c3.587,0.83,7.385,1.276,11.317,1.276
				c21.987,0,39.811-13.928,39.811-31.109C859.042,556.458,851.339,546.569,839.814,541.119z"/>
		</g>
		<g>
			<ellipse style="fill:#F9C0D1;" cx="787.838" cy="534.803" rx="21.769" ry="19.885"/>
			<path style="fill:#F9C0D1;" d="M725.163,494.897c-2.041,6.301-7.251,10.258-11.638,8.837c-4.387-1.421-6.289-7.68-4.249-13.982
				c2.041-6.301,7.251-10.257,11.638-8.837C725.301,482.336,727.203,488.596,725.163,494.897z"/>
			<path style="fill:#F9C0D1;" d="M771.838,454.367c-2.04,6.301-7.251,10.257-11.638,8.837c-4.387-1.421-6.289-7.681-4.249-13.982
				c2.041-6.301,7.251-10.257,11.638-8.837C771.976,441.806,773.878,448.066,771.838,454.367z"/>
			<path style="fill:#F9C0D1;" d="M826.69,454.367c-2.041,6.301-7.251,10.257-11.638,8.837c-4.387-1.421-6.289-7.681-4.249-13.982
				c2.041-6.301,7.251-10.257,11.638-8.837C826.828,441.806,828.731,448.066,826.69,454.367z"/>
			<path style="fill:#F9C0D1;" d="M874.115,492.733c-2.041,6.301-7.251,10.257-11.638,8.837c-4.387-1.421-6.289-7.681-4.249-13.982
				c2.041-6.301,7.251-10.258,11.638-8.837C874.254,480.172,876.156,486.432,874.115,492.733z"/>
		</g>
		<path style="fill:#9BA5BD;" d="M688.431,647.811c-0.91,89.23-2.324,227.692-2.211,227.764c0,0,14.19,22.148,108.657,22.145
			c94.467-0.002,109.815-22.145,109.815-22.145l-4.094-227.885c-24.861,4.883-59.258,8.508-106.61,8.509
			C747.02,656.2,712.992,652.633,688.431,647.811z"/>
	</g>
	<g>
		<g>
			<g>
				<path style="fill:#FFFFFF;" d="M1616.173,906.579c-88.616,0.002-110.666-19.2-115.388-25.209
					c-2.151-2.467-2.139-5.453-2.132-7.385c0.004-1.023,0.014-2.534,0.029-4.486c0.029-3.883,0.078-9.527,0.141-16.577
					c0.128-14.089,0.319-33.798,0.541-56.296c0.445-44.99,1.018-101.134,1.473-145.785c0.43-42.137,0.769-75.419,0.771-76.717
					c0.013-9.34-3.05-18.323-8.858-25.988c-6.605-8.717-11.107-19.474-13.018-31.109c-4.466-27.192,3.343-46.482,10.68-57.876
					c9.724-15.101,24.509-25.59,40.9-29.122c1.477-3.264,3.17-6.382,5.058-9.315c10.287-15.975,26.236-26.787,43.758-29.664
					c2.896-0.476,5.855-0.717,8.794-0.717c9.502,0,18.823,2.433,27.253,7.079c8.431-4.646,17.751-7.079,27.252-7.079
					c2.939,0,5.898,0.241,8.794,0.717c17.521,2.877,33.47,13.689,43.758,29.664c1.888,2.933,3.581,6.051,5.058,9.315
					c16.388,3.531,31.175,14.02,40.9,29.123c7.337,11.393,15.145,30.682,10.679,57.875c-1.911,11.634-6.412,22.391-13.018,31.109
					c-5.808,7.665-8.872,16.648-8.858,25.976c0,4.058-0.365,8.17-1.087,12.246l5.194,289.058c0.033,1.857-0.518,3.679-1.577,5.205
					C1730.265,884.956,1710.501,906.576,1616.173,906.579L1616.173,906.579z"/>
				<path style="fill:#473038;" d="M1643.426,399.192c2.458,0,4.934,0.202,7.358,0.6c15.055,2.472,28.812,11.847,37.746,25.719
					c2.161,3.355,4.357,7.51,6.191,12.436c0.677,0.08,1.351,0.171,2.021,0.281c15.055,2.472,28.813,11.847,37.746,25.72
					c6.495,10.086,13.395,27.233,9.386,51.644c-1.725,10.509-5.687,19.738-11.337,27.194c-6.849,9.038-10.672,19.999-10.656,31.338
					v0c0,3.868-0.379,7.697-1.091,11.454c-0.007,0.036-0.01,0.073-0.009,0.109l5.208,289.886c0,0-15.348,22.143-109.815,22.146
					c-0.006,0-0.009,0-0.015,0c-94.451,0-108.642-22.146-108.642-22.146c-0.165-0.107,2.95-297.652,2.95-301.45v0
					c0.016-11.34-3.808-22.301-10.656-31.338c-5.65-7.456-9.611-16.686-11.338-27.194c-4.009-24.412,2.892-41.558,9.386-51.645
					c8.933-13.873,22.691-23.247,37.746-25.72c0.67-0.11,1.344-0.202,2.021-0.281c1.833-4.925,4.03-9.08,6.191-12.435
					c8.933-13.873,22.691-23.247,37.746-25.72c2.424-0.398,4.9-0.6,7.358-0.6c9.795,0,18.989,3.016,26.945,8.411
					c0.093,0.063,0.2,0.095,0.307,0.095c0.107,0,0.214-0.032,0.308-0.095C1624.437,402.208,1633.631,399.192,1643.426,399.192
					 M1643.426,381.475c-9.421,0-18.677,2.059-27.253,6.017c-8.576-3.958-17.832-6.017-27.253-6.017
					c-3.418,0-6.86,0.281-10.23,0.834c-19.989,3.283-38.13,15.533-49.77,33.61c-1.35,2.096-2.61,4.275-3.774,6.524
					c-16.947,4.821-32.035,16.152-42.183,31.912c-8.179,12.702-16.895,34.134-11.973,64.107
					c2.144,13.051,7.227,25.162,14.699,35.023c4.629,6.109,7.07,13.237,7.06,20.614c-0.005,1.616-0.342,34.711-0.77,76.611
					c-0.458,44.911-1.028,100.805-1.473,145.807c-0.242,24.421-0.424,43.369-0.541,56.316c-0.064,7.058-0.112,12.708-0.141,16.596
					c-0.015,1.966-0.024,3.487-0.029,4.517c-0.002,0.559-0.003,0.986-0.002,1.273c0.01,4.218,1.248,7.475,2.812,9.91l-0.006,0.004
					c2.537,3.96,9.524,11.587,27.809,18.18c22.309,8.044,54.524,12.123,95.75,12.123c41.211-0.001,73.592-4.068,96.257-12.088
					c18.305-6.477,25.483-13.858,28.133-17.681c2.117-3.054,3.22-6.696,3.153-10.411l-5.178-288.227
					c0.713-4.306,1.073-8.635,1.073-12.905c-0.01-7.402,2.431-14.53,7.06-20.639c7.473-9.862,12.556-21.973,14.699-35.024
					c4.923-29.973-3.794-51.405-11.973-64.107c-10.148-15.76-25.235-27.091-42.183-31.912c-1.164-2.25-2.425-4.429-3.775-6.525
					c-11.641-18.077-29.781-30.327-49.77-33.609C1650.286,381.756,1646.844,381.475,1643.426,381.475L1643.426,381.475z"/>
			</g>
			<g>
				<path style="fill:#FF92A7;" d="M1541.181,472.186c-9.386,1.542-22.736,13.564-18.751,37.829
					c2.463,14.997,13.163,22.55,27.67,16.48c8.75-3.661,14.998-14.949,12.535-29.945
					C1560.172,481.552,1550.567,470.644,1541.181,472.186z"/>
				<path style="fill:#FF92A7;" d="M1587.139,433.749c-9.386,1.542-22.736,13.564-18.751,37.829
					c2.463,14.997,13.163,22.55,27.67,16.48c8.75-3.661,14.998-14.949,12.535-29.945
					C1606.13,443.115,1596.525,432.207,1587.139,433.749z"/>
				<path style="fill:#FF92A7;" d="M1691.165,472.186c-9.386-1.542-18.991,9.366-21.454,24.363
					c-2.463,14.997,3.785,26.284,12.535,29.945c14.507,6.07,25.207-1.483,27.67-16.48
					C1713.901,485.749,1700.551,473.727,1691.165,472.186z"/>
				<path style="fill:#FF92A7;" d="M1645.208,433.749c-9.386-1.542-18.991,9.366-21.454,24.363
					c-2.463,14.997,3.785,26.284,12.535,29.945c14.507,6.07,25.207-1.483,27.67-16.48
					C1667.944,447.313,1654.594,435.29,1645.208,433.749z"/>
				<path style="fill:#FF92A7;" d="M1661.11,541.119c-3.271-1.547-5.224-4.491-5.135-7.663c0.006-0.229,0.01-0.46,0.01-0.69
					c0-17.181-17.824-31.109-39.811-31.109c-21.987,0-39.812,13.928-39.812,31.109c0,0.231,0.003,0.461,0.01,0.69
					c0.089,3.171-1.864,6.116-5.135,7.663c-11.525,5.45-19.228,15.338-19.228,26.633c0,17.181,17.824,31.109,39.811,31.109
					c3.932,0,7.73-0.446,11.317-1.276c8.547-1.978,17.527-1.978,26.074,0c3.587,0.83,7.385,1.276,11.317,1.276
					c21.987,0,39.811-13.928,39.811-31.109C1680.339,556.458,1672.635,546.569,1661.11,541.119z"/>
			</g>
			<g>
				<ellipse style="fill:#F9C0D1;" cx="1609.135" cy="534.803" rx="21.769" ry="19.885"/>
				<path style="fill:#F9C0D1;" d="M1546.459,494.897c-2.04,6.301-7.251,10.258-11.638,8.837c-4.387-1.421-6.289-7.68-4.249-13.982
					c2.041-6.301,7.251-10.257,11.638-8.837C1546.597,482.336,1548.5,488.596,1546.459,494.897z"/>
				<path style="fill:#F9C0D1;" d="M1593.134,454.367c-2.041,6.301-7.251,10.257-11.638,8.837
					c-4.387-1.421-6.289-7.681-4.249-13.982c2.04-6.301,7.251-10.257,11.638-8.837
					C1593.272,441.806,1595.175,448.066,1593.134,454.367z"/>
				<path style="fill:#F9C0D1;" d="M1647.986,454.367c-2.041,6.301-7.251,10.257-11.638,8.837
					c-4.387-1.421-6.289-7.681-4.249-13.982c2.041-6.301,7.251-10.257,11.638-8.837
					C1648.125,441.806,1650.027,448.066,1647.986,454.367z"/>
				<path style="fill:#F9C0D1;" d="M1695.412,492.733c-2.041,6.301-7.251,10.257-11.638,8.837
					c-4.387-1.421-6.289-7.681-4.249-13.982c2.041-6.301,7.251-10.258,11.638-8.837
					C1695.55,480.172,1697.452,486.432,1695.412,492.733z"/>
			</g>
		</g>
	</g>
	<g>
		<g>
			<g>
				<path style="fill:#FFFFFF;" d="M384.255,906.579c-88.616,0.002-110.666-19.2-115.388-25.209
					c-2.152-2.466-2.14-5.453-2.131-7.385c0.004-1.023,0.014-2.534,0.028-4.486c0.029-3.883,0.077-9.527,0.141-16.577
					c0.128-14.089,0.318-33.798,0.541-56.296c0.445-44.99,1.018-101.135,1.473-145.785c0.43-42.137,0.769-75.419,0.77-76.716
					c0.013-9.34-3.05-18.323-8.858-25.988c-6.606-8.717-11.108-19.475-13.019-31.109c-4.466-27.192,3.343-46.482,10.68-57.876
					c9.723-15.101,24.509-25.589,40.899-29.122c1.477-3.264,3.17-6.382,5.058-9.314c10.286-15.975,26.235-26.787,43.758-29.664
					c2.896-0.476,5.855-0.717,8.793-0.717c9.503,0,18.823,2.433,27.253,7.079c8.428-4.645,17.749-7.079,27.253-7.079
					c2.939,0,5.897,0.241,8.794,0.717c17.521,2.877,33.47,13.689,43.757,29.664c1.889,2.933,3.581,6.051,5.058,9.315
					c16.389,3.532,31.175,14.02,40.9,29.123c7.337,11.394,15.146,30.683,10.679,57.875c-1.91,11.634-6.412,22.391-13.018,31.109
					c-5.808,7.665-8.871,16.647-8.858,25.976c0,4.058-0.365,8.169-1.087,12.245l5.193,289.058c0.033,1.857-0.518,3.679-1.576,5.205
					C498.346,884.956,478.582,906.576,384.255,906.579L384.255,906.579z"/>
				<path style="fill:#473038;" d="M411.507,399.192c2.458,0,4.934,0.202,7.358,0.6c15.055,2.472,28.812,11.847,37.746,25.719
					c2.161,3.355,4.357,7.51,6.191,12.436c0.676,0.08,1.351,0.171,2.021,0.281c15.055,2.472,28.813,11.847,37.746,25.72
					c6.495,10.086,13.395,27.233,9.386,51.644c-1.726,10.508-5.687,19.738-11.337,27.194c-6.849,9.038-10.672,19.999-10.656,31.339
					c0,3.868-0.379,7.697-1.091,11.454c-0.007,0.036-0.01,0.073-0.009,0.11l5.208,289.886c0,0-15.348,22.143-109.815,22.145
					c-0.006,0-0.009,0-0.015,0c-94.451,0-108.642-22.145-108.642-22.145c-0.165-0.107,2.95-297.652,2.95-301.45
					c0.016-11.34-3.808-22.301-10.656-31.338c-5.65-7.456-9.611-16.686-11.337-27.195c-4.009-24.412,2.892-41.558,9.386-51.645
					c8.933-13.873,22.691-23.247,37.746-25.72c0.67-0.11,1.344-0.202,2.021-0.281c1.833-4.925,4.03-9.08,6.191-12.435
					c8.933-13.873,22.691-23.247,37.746-25.72c2.424-0.398,4.9-0.6,7.358-0.6c9.795,0,18.989,3.016,26.946,8.411
					c0.093,0.063,0.2,0.095,0.307,0.095s0.214-0.032,0.307-0.095C392.518,402.208,401.713,399.192,411.507,399.192 M411.507,381.475
					c-9.421,0-18.677,2.059-27.253,6.017c-8.576-3.958-17.832-6.017-27.253-6.017c-3.418,0-6.86,0.281-10.229,0.834
					c-19.989,3.283-38.13,15.533-49.77,33.61c-1.35,2.096-2.61,4.275-3.774,6.524c-16.947,4.821-32.035,16.152-42.183,31.912
					c-8.179,12.702-16.896,34.135-11.973,64.107c2.144,13.051,7.226,25.162,14.699,35.023c4.629,6.109,7.071,13.237,7.06,20.614
					c-0.004,1.616-0.342,34.711-0.769,76.609c-0.458,44.911-1.028,100.805-1.473,145.808c-0.241,24.422-0.423,43.369-0.541,56.317
					c-0.064,7.058-0.113,12.708-0.142,16.596c-0.015,1.966-0.024,3.487-0.029,4.517c-0.002,0.559-0.003,0.986-0.002,1.273
					c0.01,4.218,1.248,7.475,2.812,9.91l-0.006,0.004c2.538,3.96,9.524,11.587,27.809,18.18
					c22.309,8.044,54.524,12.123,95.75,12.123c41.211-0.001,73.592-4.068,96.257-12.088c18.305-6.477,25.483-13.858,28.133-17.681
					c2.117-3.054,3.22-6.696,3.153-10.411l-5.178-288.226c0.713-4.302,1.073-8.633,1.073-12.906
					c-0.01-7.402,2.431-14.53,7.06-20.639c7.473-9.862,12.556-21.973,14.699-35.024c4.923-29.973-3.794-51.405-11.973-64.107
					c-10.148-15.76-25.235-27.091-42.183-31.912c-1.165-2.25-2.425-4.429-3.775-6.526c-11.641-18.076-29.781-30.326-49.77-33.609
					C418.367,381.756,414.925,381.475,411.507,381.475L411.507,381.475z"/>
			</g>
			<g>
				<path style="fill:#FF92A7;" d="M309.262,472.186c-9.386,1.542-22.736,13.564-18.751,37.829
					c2.463,14.997,13.163,22.55,27.67,16.48c8.75-3.661,14.998-14.949,12.535-29.945
					C328.254,481.552,318.648,470.644,309.262,472.186z"/>
				<path style="fill:#FF92A7;" d="M355.22,433.749c-9.386,1.542-22.736,13.564-18.751,37.829
					c2.463,14.997,13.163,22.55,27.67,16.48c8.75-3.661,14.998-14.949,12.535-29.945
					C374.212,443.115,364.606,432.207,355.22,433.749z"/>
				<path style="fill:#FF92A7;" d="M459.247,472.186c-9.386-1.542-18.991,9.366-21.454,24.363
					c-2.463,14.997,3.785,26.284,12.535,29.945c14.507,6.07,25.207-1.483,27.67-16.48
					C481.983,485.749,468.633,473.727,459.247,472.186z"/>
				<path style="fill:#FF92A7;" d="M413.289,433.749c-9.386-1.542-18.991,9.366-21.454,24.363
					c-2.463,14.997,3.785,26.284,12.535,29.945c14.507,6.07,25.207-1.483,27.67-16.48
					C436.025,447.313,422.675,435.29,413.289,433.749z"/>
				<path style="fill:#FF92A7;" d="M429.191,541.119c-3.271-1.547-5.224-4.491-5.135-7.663c0.007-0.229,0.01-0.46,0.01-0.69
					c0-17.181-17.824-31.109-39.811-31.109c-21.987,0-39.811,13.928-39.811,31.109c0,0.231,0.003,0.461,0.01,0.69
					c0.089,3.171-1.864,6.116-5.135,7.663c-11.525,5.45-19.228,15.338-19.228,26.633c0,17.181,17.824,31.109,39.811,31.109
					c3.932,0,7.73-0.446,11.317-1.276c8.546-1.978,17.527-1.978,26.074,0c3.587,0.83,7.385,1.276,11.317,1.276
					c21.987,0,39.811-13.928,39.811-31.109C448.42,556.458,440.716,546.569,429.191,541.119z"/>
			</g>
			<g>
				<ellipse style="fill:#F9C0D1;" cx="377.216" cy="534.803" rx="21.769" ry="19.885"/>
				<path style="fill:#F9C0D1;" d="M314.54,494.897c-2.041,6.301-7.251,10.257-11.638,8.837c-4.387-1.421-6.289-7.68-4.249-13.982
					c2.04-6.301,7.251-10.258,11.638-8.837C314.679,482.336,316.581,488.596,314.54,494.897z"/>
				<path style="fill:#F9C0D1;" d="M361.215,454.367c-2.04,6.301-7.251,10.257-11.638,8.837c-4.387-1.421-6.289-7.681-4.249-13.982
					c2.041-6.301,7.251-10.257,11.638-8.837C361.354,441.806,363.256,448.066,361.215,454.367z"/>
				<path style="fill:#F9C0D1;" d="M416.068,454.367c-2.04,6.301-7.251,10.257-11.638,8.837c-4.387-1.421-6.289-7.681-4.249-13.982
					c2.041-6.301,7.251-10.257,11.638-8.837C416.206,441.806,418.108,448.066,416.068,454.367z"/>
				<path style="fill:#F9C0D1;" d="M463.493,492.733c-2.04,6.301-7.251,10.257-11.638,8.837c-4.387-1.421-6.289-7.681-4.249-13.982
					c2.041-6.301,7.251-10.258,11.638-8.837C463.631,480.172,465.533,486.432,463.493,492.733z"/>
			</g>
			<path style="fill:#B09287;" d="M278.183,611.062c0,0,53.595,5.049,53.075,49.429c-0.216,18.446-17.816,38.606-20.727,61.534
				c-6.638,52.271-34.006,52.271-34.006,52.271L278.183,611.062"/>
			<path style="fill:#F9BA8A;" d="M490.032,650.833c0,0-64.307-12.763-57.268,60.429c4.214,43.819-21.087,73.513-41.47,103.334
				c-21.116,30.893-21.116,83.124-21.116,83.124c92.643,6.519,123.892-22.146,123.892-22.146L490.032,650.833"/>
		</g>
	</g>
	<g>
		<g>
			<path style="fill:#FFFFFF;" d="M1205.5,906.579c-88.61,0.002-110.663-19.197-115.387-25.207c-2.153-2.467-2.14-5.454-2.133-7.387
				c0.004-1.023,0.014-2.533,0.029-4.486c0.029-3.884,0.078-9.527,0.141-16.577c0.128-14.089,0.319-33.797,0.541-56.294
				c0.445-44.99,1.017-101.133,1.473-145.783c0.43-42.139,0.769-75.423,0.77-76.72c0.013-9.34-3.05-18.323-8.858-25.988
				c-6.606-8.718-11.107-19.475-13.018-31.109c-4.466-27.191,3.343-46.482,10.68-57.876c9.724-15.102,24.509-25.59,40.9-29.122
				c1.476-3.263,3.168-6.38,5.057-9.314c10.286-15.975,26.236-26.787,43.758-29.665c2.895-0.476,5.855-0.717,8.793-0.717
				c9.503,0,18.824,2.433,27.253,7.079c8.429-4.645,17.75-7.079,27.253-7.079c2.939,0,5.898,0.241,8.794,0.717
				c17.521,2.877,33.469,13.689,43.757,29.664c1.888,2.932,3.581,6.051,5.058,9.315c16.39,3.533,31.176,14.021,40.9,29.123
				c7.337,11.393,15.146,30.683,10.679,57.875c-1.91,11.634-6.412,22.391-13.018,31.109c-5.808,7.664-8.871,16.646-8.858,25.976
				c0,4.057-0.365,8.169-1.087,12.246l5.245,291.915l-1.628,2.348C1319.591,884.956,1299.827,906.577,1205.5,906.579L1205.5,906.579
				z"/>
			<g>
				<path style="fill:#25251B;" d="M1232.752,399.192c2.458,0,4.934,0.202,7.358,0.6c15.055,2.472,28.812,11.847,37.746,25.719
					c2.161,3.355,4.357,7.51,6.191,12.436c0.676,0.08,1.351,0.171,2.021,0.281c15.055,2.472,28.813,11.847,37.746,25.72
					c6.495,10.086,13.395,27.233,9.386,51.644c-1.726,10.509-5.687,19.738-11.337,27.194c-6.848,9.038-10.672,19.999-10.656,31.338
					v0c0,3.868-0.379,7.697-1.091,11.454c-0.007,0.036-0.01,0.073-0.009,0.109l5.208,289.886c0,0-15.348,22.143-109.815,22.146
					c-0.006,0-0.009,0-0.015,0c-94.451,0-108.642-22.146-108.642-22.146c-0.165-0.107,2.95-297.652,2.95-301.45v0
					c0.016-11.34-3.808-22.301-10.656-31.338c-5.65-7.456-9.611-16.686-11.337-27.194c-4.009-24.412,2.892-41.558,9.387-51.645
					c8.933-13.873,22.691-23.247,37.746-25.72c0.67-0.11,1.344-0.202,2.021-0.281c1.833-4.925,4.03-9.08,6.191-12.435
					c8.933-13.873,22.691-23.247,37.746-25.72c2.424-0.398,4.9-0.6,7.358-0.6c9.795,0,18.989,3.016,26.946,8.411
					c0.093,0.063,0.2,0.095,0.307,0.095c0.107,0,0.214-0.032,0.308-0.095C1213.763,402.208,1222.958,399.192,1232.752,399.192
					 M1232.752,381.475c-9.421,0-18.677,2.059-27.253,6.017c-8.576-3.958-17.832-6.017-27.253-6.017
					c-3.418,0-6.86,0.281-10.23,0.834c-19.989,3.283-38.13,15.533-49.77,33.61c-1.35,2.096-2.61,4.275-3.774,6.524
					c-16.947,4.821-32.035,16.152-42.183,31.912c-8.179,12.702-16.896,34.135-11.973,64.107
					c2.144,13.051,7.227,25.162,14.699,35.023c4.629,6.109,7.07,13.237,7.06,20.614c-0.005,1.616-0.342,34.711-0.77,76.611
					c-0.458,44.911-1.028,100.805-1.473,145.807c-0.241,24.421-0.424,43.369-0.541,56.316c-0.064,7.058-0.112,12.708-0.141,16.596
					c-0.015,1.966-0.024,3.487-0.029,4.517c-0.002,0.559-0.003,0.986-0.002,1.273c0.01,4.218,1.248,7.475,2.812,9.91l-0.006,0.004
					c2.537,3.96,9.524,11.587,27.809,18.18c22.309,8.044,54.524,12.123,95.75,12.123c41.211-0.001,73.592-4.068,96.257-12.088
					c18.305-6.477,25.483-13.858,28.133-17.681l3.255-4.697l-0.103-5.714l-5.178-288.226c0.713-4.302,1.073-8.634,1.073-12.906
					c-0.01-7.402,2.431-14.53,7.06-20.639c7.473-9.862,12.556-21.973,14.699-35.024c4.923-29.973-3.794-51.405-11.973-64.107
					c-10.148-15.76-25.235-27.091-42.183-31.912c-1.165-2.25-2.425-4.429-3.775-6.525c-11.641-18.077-29.781-30.327-49.77-33.609
					C1239.612,381.756,1236.17,381.475,1232.752,381.475L1232.752,381.475z"/>
			</g>
		</g>
		<g>
			<path style="fill:#FF92A7;" d="M1130.507,472.186c-9.386,1.542-22.736,13.564-18.751,37.829
				c2.463,14.997,13.163,22.55,27.67,16.48c8.75-3.661,14.998-14.949,12.535-29.945
				C1149.499,481.552,1139.893,470.644,1130.507,472.186z"/>
			<path style="fill:#FF92A7;" d="M1176.465,433.749c-9.386,1.542-22.736,13.564-18.751,37.829
				c2.463,14.997,13.163,22.55,27.67,16.48c8.75-3.661,14.998-14.949,12.535-29.945
				C1195.457,443.115,1185.851,432.207,1176.465,433.749z"/>
			<path style="fill:#FF92A7;" d="M1280.491,472.186c-9.386-1.542-18.991,9.366-21.454,24.363
				c-2.463,14.997,3.785,26.284,12.535,29.945c14.507,6.07,25.207-1.483,27.67-16.48
				C1303.228,485.749,1289.877,473.727,1280.491,472.186z"/>
			<path style="fill:#FF92A7;" d="M1234.534,433.749c-9.386-1.542-18.991,9.366-21.454,24.363
				c-2.463,14.997,3.785,26.284,12.535,29.945c14.507,6.07,25.207-1.483,27.67-16.48
				C1257.27,447.313,1243.92,435.29,1234.534,433.749z"/>
			<path style="fill:#FF92A7;" d="M1250.436,541.119c-3.271-1.547-5.224-4.491-5.135-7.663c0.006-0.229,0.01-0.46,0.01-0.69
				c0-17.181-17.824-31.109-39.811-31.109c-21.987,0-39.811,13.928-39.811,31.109c0,0.231,0.003,0.461,0.01,0.69
				c0.089,3.171-1.864,6.116-5.135,7.663c-11.525,5.45-19.228,15.338-19.228,26.633c0,17.181,17.824,31.109,39.811,31.109
				c3.932,0,7.73-0.446,11.317-1.276c8.547-1.978,17.527-1.978,26.074,0c3.587,0.83,7.385,1.276,11.317,1.276
				c21.987,0,39.811-13.928,39.811-31.109C1269.665,556.458,1261.961,546.569,1250.436,541.119z"/>
		</g>
		<g>
			<ellipse style="fill:#F9C0D1;" cx="1198.461" cy="534.803" rx="21.769" ry="19.885"/>
			
				<ellipse transform="matrix(0.3081 -0.9514 0.9514 0.3081 311.9853 1413.6224)" style="fill:#F9C0D1;" cx="1127.842" cy="492.325" rx="11.993" ry="8.35"/>
			<path style="fill:#F9C0D1;" d="M1182.46,454.367c-2.041,6.301-7.251,10.257-11.638,8.837c-4.387-1.421-6.289-7.681-4.249-13.982
				c2.041-6.301,7.251-10.257,11.638-8.837C1182.599,441.806,1184.501,448.066,1182.46,454.367z"/>
			
				<ellipse transform="matrix(0.3081 -0.9514 0.9514 0.3081 420.7989 1482.1733)" style="fill:#F9C0D1;" cx="1229.369" cy="451.794" rx="11.993" ry="8.35"/>
			<path style="fill:#F9C0D1;" d="M1284.738,492.733c-2.041,6.301-7.251,10.257-11.638,8.837c-4.387-1.421-6.289-7.681-4.249-13.982
				c2.041-6.301,7.251-10.258,11.638-8.837C1284.876,480.172,1286.778,486.432,1284.738,492.733z"/>
		</g>
		<path style="fill:#FBC378;" d="M1099.054,647.811c-0.91,89.23-2.324,227.692-2.211,227.764c0,0,14.191,22.148,108.657,22.145
			c94.467-0.002,109.815-22.145,109.815-22.145l-4.094-227.885c-24.861,4.883-59.258,8.508-106.61,8.509
			C1157.642,656.2,1123.615,652.633,1099.054,647.811z"/>
		<path style="fill:#EA9320;" d="M1267.291,772.159c0,0-44.096,21.203-34.018,36.186s59.207,33.087,66.693,0
			C1307.452,775.258,1301.836,767.913,1267.291,772.159z"/>
		<path style="fill:#EA9320;" d="M1311.848,671.571c0,0-17.552,5.336-72.315,5.76c-65.914,0.51-49.667,44.567-4.617,52.614
			c53.031,9.472,78.065,4.707,78.065,4.707L1311.848,671.571z"/>
		<path style="fill:#EA9320;" d="M1097.63,801.823c0,0,35.102,9.74,76.07,6.315c40.969-3.424,27.198,42.53-12.856,52.335
			c-27.342,6.693-64.008,4.479-64.008,4.479l0.919-73.089"/>
		<path style="fill:#EA9320;" d="M1098.226,719.054c0,0,12.071,6.718,53.524,16.015c10.005,2.244,22.203,27.684-13.386,33.872
			c-24.235,4.214-40.657,1.744-40.657,1.744L1098.226,719.054z"/>
	</g>
</g>
</svg>
